<svg xmlns="http://www.w3.org/2000/svg" width="209.318" height="59" viewBox="0 0 209.318 59">
    <g data-name="Group 285">
        <path data-name="Path 83" d="M21.9-60.89v2.752q0 4.216-3.107 5.37 3.373 1.021 3.373 5.459v2.974q0 6.924-7.368 6.924H5.076v-30.4h9.454q7.37-.003 7.37 6.921zm-8.167-2.4H10.4v8.211h3.329q2.929 0 2.929-2.752v-2.752q.002-2.703-2.927-2.703zm3.2 18.641v-2.974q0-2.752-2.929-2.752H10.4v8.433H14q2.926.004 2.926-2.703zm9.587-25.476h5.37v32.71h-5.37zM46.885-56.5q0-2.619-2.685-2.619T41.515-56.5v12.339q0 2.619 2.685 2.619t2.685-2.619zm-10.652-.133a6.811 6.811 0 0 1 1.975-5.167q1.975-1.886 5.992-1.886t5.992 1.886a6.811 6.811 0 0 1 1.975 5.171v12.6a6.811 6.811 0 0 1-1.975 5.171q-1.975 1.886-5.992 1.886t-5.992-1.886a6.811 6.811 0 0 1-1.975-5.171zm20.283-13.488h5.193v32.71h-5.193zm9.984 6.879h5.37l-4.48 12.294 5.06 13.537h-5.681l-4.66-13.759zm25.387 0v25.831h-5.37v-21.57H81.46v21.57h-5.37v-21.57h-2.53v-4.261h2.53v-.666q0-6.968 8.832-6.968a25.157 25.157 0 0 1 5.725.621v4.216a19 19 0 0 0-4.793-.577 6.728 6.728 0 0 0-3.484.621 2.293 2.293 0 0 0-.91 2.042v.71zm4.35 18.774v-12.161a6.811 6.811 0 0 1 1.977-5.171q1.975-1.886 5.97-1.886t5.881 1.886a6.987 6.987 0 0 1 1.886 5.171v8.522h-10.519v3.24a2.717 2.717 0 0 0 .932 2.308 6.243 6.243 0 0 0 3.551.71 18.278 18.278 0 0 0 5.37-.843v4.749a21.934 21.934 0 0 1-6.125.8q-8.921-.002-8.921-7.325zm5.193-7.811h5.548v-4.305q0-2.619-2.774-2.619t-2.774 2.619zm14.513-17.842h5.37v32.71h-5.37zm20.283 11.673h-2.308q-2.885 0-2.885 2.8v11.407a1.883 1.883 0 0 0 2.13 2.13 4.891 4.891 0 0 0 3.066-.889zm-.044-11.673h5.37v32.71h-5.193v-1.731a6.5 6.5 0 0 1-4.793 1.908 5.713 5.713 0 0 1-4.394-1.62 6.421 6.421 0 0 1-1.509-4.549v-12.383a7.408 7.408 0 0 1 1.975-5.481 7.786 7.786 0 0 1 5.748-1.975h2.8z" transform="translate(67.764 81.705)" style="fill:#fff"/>
        <g data-name="Group 284">
            <path data-name="Union 1" d="M0 26V0h26v4.241H4.241V26z" style="fill:#e25023"/>
            <path data-name="Path 79" d="M18.858-75.7v1.908q0 3.072-2.328 3.945 2.522.841 2.522 4.075v2.037a4.872 4.872 0 0 1-1.342 3.7 5.54 5.54 0 0 1-3.961 1.277H7.378v-21.924h6.176a5.54 5.54 0 0 1 3.962 1.282 4.872 4.872 0 0 1 1.342 3.7zM13.2-78.063h-2.782v6.92H13.2q2.652 0 2.652-2.522v-1.908q-.002-2.49-2.652-2.49zm2.846 14.2v-2.07q0-2.49-2.652-2.49h-2.976v7.05h2.975q2.651-.003 2.651-2.493z" transform="translate(10.341 92.172)" style="fill:#fac22c"/>
            <path data-name="Path 78" d="M7.378-80.682h9.7V-78H10.45v7.373h6.273v2.716H10.45v9.152H7.378z" transform="translate(22.841 106.301)" style="fill:#fac22c"/>
            <path data-name="Union 14" d="M0 0v26h26v-4.241H4.241V0z" transform="rotate(180 29 13)" style="fill:#75a652"/>
            <path data-name="Union 15" d="M0 0v26h26v-4.241H4.241V0z" transform="translate(0 33)" style="fill:#35d6a6"/>
            <path data-name="Union 16" d="M0 26V0h26v4.241H4.241V26z" transform="rotate(180 29 29.5)" style="fill:#20bdfb"/>
        </g>
    </g>
</svg>
