<svg xmlns="http://www.w3.org/2000/svg" width="239.319" height="89.168" viewBox="0 0 239.319 89.168">
    <g data-name="Group 243">
        <path data-name="Path 1" d="M279.919 394.12h38.721v16.851h-53.49V351.9h14.769z" transform="translate(-250.15 -336.803)" style="fill:#fff"/>
        <path data-name="Path 2" d="M307.307 380.4v-28.646h26.285V380.4z" transform="translate(-265.102 -336.754)" style="fill:#fff"/>
        <path data-name="Path 1" d="M279.919 394.12h38.721v16.851h-53.49V351.9h14.769z" transform="translate(-250.15 -336.803)" style="opacity:.621;fill:#fff"/>
        <path data-name="Path 2" d="M307.307 380.4v-28.646h26.285V380.4z" transform="translate(-265.102 -336.754)" style="opacity:.621;fill:#fff"/>
        <g data-name="Group 239">
            <path data-name="Path 68" d="M7.914-16.56h5.048a11.638 11.638 0 0 0 2.67-.293 6.646 6.646 0 0 0 2.158-.9 4.52 4.52 0 0 0 1.445-1.518 4.3 4.3 0 0 0 .53-2.195 4.462 4.462 0 0 0-1.646-3.8 7.925 7.925 0 0 0-4.829-1.244H7.914zm0-12.145h5.3a7.6 7.6 0 0 0 1.884-.238 4.848 4.848 0 0 0 1.683-.786 4.29 4.29 0 0 0 1.225-1.408 4.291 4.291 0 0 0 .476-2.1 5.562 5.562 0 0 0-.165-1.134 3.752 3.752 0 0 0-.732-1.463 4.574 4.574 0 0 0-1.66-1.266 6.891 6.891 0 0 0-2.963-.53H7.914zM5.28-40.045H13a14.462 14.462 0 0 1 3.109.329 7.908 7.908 0 0 1 2.67 1.1 5.685 5.685 0 0 1 1.866 2.012 6.224 6.224 0 0 1 .7 3.073 5.725 5.725 0 0 1-1.189 3.64 5.8 5.8 0 0 1-3.384 2.03v.073a6.245 6.245 0 0 1 4.3 1.92 6.49 6.49 0 0 1 1.555 4.554 8.047 8.047 0 0 1-.311 1.829 6.208 6.208 0 0 1-1.3 2.4 8.145 8.145 0 0 1-2.853 2.067 11.813 11.813 0 0 1-4.975.878H5.28zm25.131 25.9H28V-41.8h2.414zM50.9-22.706a7.678 7.678 0 0 0-.457-2.67 6.42 6.42 0 0 0-1.3-2.158 6.1 6.1 0 0 0-2.03-1.445 6.532 6.532 0 0 0-2.689-.53 6.532 6.532 0 0 0-2.689.53 5.9 5.9 0 0 0-2.012 1.445 6.583 6.583 0 0 0-1.28 2.158 7.678 7.678 0 0 0-.457 2.67 7.678 7.678 0 0 0 .457 2.67 6.583 6.583 0 0 0 1.28 2.158 5.9 5.9 0 0 0 2.012 1.445 6.532 6.532 0 0 0 2.689.53 6.532 6.532 0 0 0 2.689-.53 6.1 6.1 0 0 0 2.03-1.445 6.42 6.42 0 0 0 1.3-2.158 7.678 7.678 0 0 0 .457-2.67zm2.634 0a9.337 9.337 0 0 1-.677 3.585 8.624 8.624 0 0 1-1.884 2.853 8.579 8.579 0 0 1-2.873 1.884 9.674 9.674 0 0 1-3.676.677 9.574 9.574 0 0 1-3.64-.677 8.579 8.579 0 0 1-2.872-1.884 8.624 8.624 0 0 1-1.884-2.853 9.337 9.337 0 0 1-.677-3.585 9.337 9.337 0 0 1 .677-3.585 8.624 8.624 0 0 1 1.884-2.853 8.579 8.579 0 0 1 2.872-1.884 9.574 9.574 0 0 1 3.64-.677 9.674 9.674 0 0 1 3.676.677 8.579 8.579 0 0 1 2.872 1.884 8.624 8.624 0 0 1 1.884 2.853 9.337 9.337 0 0 1 .674 3.585zm6.8-.841 8.084-7.718h3.621l-8.523 7.828 9.438 9.291h-3.731l-8.889-9v9h-2.415V-41.8h2.414zm23.192-5.524h-4.06v14.925h-2.415v-14.925h-3.622v-2.195h3.621v-4.682q0-3.4 1.573-4.847a5.923 5.923 0 0 1 4.17-1.445 7.624 7.624 0 0 1 1.043.073q.53.073 1.043.183l-.439 2.195q-.439-.11-.915-.183a6.246 6.246 0 0 0-.951-.073 3.432 3.432 0 0 0-1.61.329 2.264 2.264 0 0 0-.951.933 4.065 4.065 0 0 0-.439 1.408 12.741 12.741 0 0 0-.11 1.719v4.39h4.06zm6.365-8.779a1.622 1.622 0 0 1-.549 1.262 1.766 1.766 0 0 1-1.207.494 1.766 1.766 0 0 1-1.207-.494 1.622 1.622 0 0 1-.549-1.262 1.622 1.622 0 0 1 .549-1.262 1.766 1.766 0 0 1 1.207-.494 1.766 1.766 0 0 1 1.207.494 1.622 1.622 0 0 1 .549 1.262zm-.549 23.7h-2.414v-17.12h2.414zm19.132-9.877a5.479 5.479 0 0 0-1.463-3.969 5.424 5.424 0 0 0-4.1-1.518 5.842 5.842 0 0 0-2.268.457 6.384 6.384 0 0 0-1.92 1.225 6.146 6.146 0 0 0-1.317 1.756 4.527 4.527 0 0 0-.494 2.049zm-11.633 1.979a7.345 7.345 0 0 0 .622 2.414 6.379 6.379 0 0 0 1.353 1.957 6.367 6.367 0 0 0 1.939 1.3 5.915 5.915 0 0 0 2.378.476 6.1 6.1 0 0 0 3.347-.9 6.7 6.7 0 0 0 2.14-2.067l1.866 1.536a9.28 9.28 0 0 1-3.384 2.78 9.462 9.462 0 0 1-3.969.841 9.1 9.1 0 0 1-3.53-.677 8.269 8.269 0 0 1-2.8-1.884 8.925 8.925 0 0 1-1.847-2.853 9.337 9.337 0 0 1-.677-3.585 9.565 9.565 0 0 1 .658-3.585 8.679 8.679 0 0 1 1.829-2.853 8.41 8.41 0 0 1 2.744-1.884 8.516 8.516 0 0 1 3.4-.677 8.342 8.342 0 0 1 3.475.7 7.711 7.711 0 0 1 2.579 1.847 7.907 7.907 0 0 1 1.591 2.707 9.874 9.874 0 0 1 .549 3.311v1.1zm21.619 7.9h-2.414V-41.8h2.414zm7.28-8.56a7.679 7.679 0 0 0 .457 2.67 6.42 6.42 0 0 0 1.3 2.158 6.1 6.1 0 0 0 2.03 1.445 6.532 6.532 0 0 0 2.689.53 6.962 6.962 0 0 0 2.725-.53 6.725 6.725 0 0 0 2.177-1.445 6.535 6.535 0 0 0 1.427-2.158 6.944 6.944 0 0 0 .512-2.67 6.944 6.944 0 0 0-.512-2.67 6.535 6.535 0 0 0-1.427-2.158 6.725 6.725 0 0 0-2.177-1.445 6.962 6.962 0 0 0-2.725-.53 6.532 6.532 0 0 0-2.689.53 6.1 6.1 0 0 0-2.03 1.445 6.42 6.42 0 0 0-1.3 2.158 7.679 7.679 0 0 0-.457 2.672zm15.62 8.56h-2.414V-17h-.073a6.281 6.281 0 0 1-1.39 1.5 8.63 8.63 0 0 1-1.683 1.024 8.05 8.05 0 0 1-1.811.585 9.23 9.23 0 0 1-1.774.183 9.674 9.674 0 0 1-3.676-.677 8.579 8.579 0 0 1-2.872-1.884 8.624 8.624 0 0 1-1.884-2.853 9.338 9.338 0 0 1-.677-3.585 9.338 9.338 0 0 1 .677-3.585 8.624 8.624 0 0 1 1.884-2.853 8.579 8.579 0 0 1 2.872-1.884 9.674 9.674 0 0 1 3.676-.677 9.23 9.23 0 0 1 1.774.183 8.049 8.049 0 0 1 1.811.585 8.63 8.63 0 0 1 1.683 1.024 6.281 6.281 0 0 1 1.39 1.5h.073V-41.8h2.414z" transform="translate(82.959 71.619)" style="fill:#fff"/>
            <path data-name="Path 69" d="M7.914-16.56h5.048a11.638 11.638 0 0 0 2.67-.293 6.646 6.646 0 0 0 2.158-.9 4.52 4.52 0 0 0 1.445-1.518 4.3 4.3 0 0 0 .53-2.195 4.462 4.462 0 0 0-1.646-3.8 7.925 7.925 0 0 0-4.829-1.244H7.914zm0-12.145h5.3a7.6 7.6 0 0 0 1.884-.238 4.848 4.848 0 0 0 1.683-.786 4.29 4.29 0 0 0 1.225-1.408 4.291 4.291 0 0 0 .476-2.1 5.562 5.562 0 0 0-.165-1.134 3.752 3.752 0 0 0-.732-1.463 4.574 4.574 0 0 0-1.66-1.266 6.891 6.891 0 0 0-2.963-.53H7.914zM5.28-40.045H13a14.462 14.462 0 0 1 3.109.329 7.908 7.908 0 0 1 2.67 1.1 5.685 5.685 0 0 1 1.866 2.012 6.224 6.224 0 0 1 .7 3.073 5.725 5.725 0 0 1-1.189 3.64 5.8 5.8 0 0 1-3.384 2.03v.073a6.245 6.245 0 0 1 4.3 1.92 6.49 6.49 0 0 1 1.555 4.554 8.047 8.047 0 0 1-.311 1.829 6.208 6.208 0 0 1-1.3 2.4 8.145 8.145 0 0 1-2.853 2.067 11.813 11.813 0 0 1-4.975.878H5.28zm25.131 25.9H28V-41.8h2.414zM50.9-22.706a7.678 7.678 0 0 0-.457-2.67 6.42 6.42 0 0 0-1.3-2.158 6.1 6.1 0 0 0-2.03-1.445 6.532 6.532 0 0 0-2.689-.53 6.532 6.532 0 0 0-2.689.53 5.9 5.9 0 0 0-2.012 1.445 6.583 6.583 0 0 0-1.28 2.158 7.678 7.678 0 0 0-.457 2.67 7.678 7.678 0 0 0 .457 2.67 6.583 6.583 0 0 0 1.28 2.158 5.9 5.9 0 0 0 2.012 1.445 6.532 6.532 0 0 0 2.689.53 6.532 6.532 0 0 0 2.689-.53 6.1 6.1 0 0 0 2.03-1.445 6.42 6.42 0 0 0 1.3-2.158 7.678 7.678 0 0 0 .457-2.67zm2.634 0a9.337 9.337 0 0 1-.677 3.585 8.624 8.624 0 0 1-1.884 2.853 8.579 8.579 0 0 1-2.873 1.884 9.674 9.674 0 0 1-3.676.677 9.574 9.574 0 0 1-3.64-.677 8.579 8.579 0 0 1-2.872-1.884 8.624 8.624 0 0 1-1.884-2.853 9.337 9.337 0 0 1-.677-3.585 9.337 9.337 0 0 1 .677-3.585 8.624 8.624 0 0 1 1.884-2.853 8.579 8.579 0 0 1 2.872-1.884 9.574 9.574 0 0 1 3.64-.677 9.674 9.674 0 0 1 3.676.677 8.579 8.579 0 0 1 2.872 1.884 8.624 8.624 0 0 1 1.884 2.853 9.337 9.337 0 0 1 .674 3.585zm6.8-.841 8.084-7.718h3.621l-8.523 7.828 9.438 9.291h-3.731l-8.889-9v9h-2.415V-41.8h2.414zm23.192-5.524h-4.06v14.925h-2.415v-14.925h-3.622v-2.195h3.621v-4.682q0-3.4 1.573-4.847a5.923 5.923 0 0 1 4.17-1.445 7.624 7.624 0 0 1 1.043.073q.53.073 1.043.183l-.439 2.195q-.439-.11-.915-.183a6.246 6.246 0 0 0-.951-.073 3.432 3.432 0 0 0-1.61.329 2.264 2.264 0 0 0-.951.933 4.065 4.065 0 0 0-.439 1.408 12.741 12.741 0 0 0-.11 1.719v4.39h4.06zm6.365-8.779a1.622 1.622 0 0 1-.549 1.262 1.766 1.766 0 0 1-1.207.494 1.766 1.766 0 0 1-1.207-.494 1.622 1.622 0 0 1-.549-1.262 1.622 1.622 0 0 1 .549-1.262 1.766 1.766 0 0 1 1.207-.494 1.766 1.766 0 0 1 1.207.494 1.622 1.622 0 0 1 .549 1.262zm-.549 23.7h-2.414v-17.12h2.414zm19.132-9.877a5.479 5.479 0 0 0-1.463-3.969 5.424 5.424 0 0 0-4.1-1.518 5.842 5.842 0 0 0-2.268.457 6.384 6.384 0 0 0-1.92 1.225 6.146 6.146 0 0 0-1.317 1.756 4.527 4.527 0 0 0-.494 2.049zm-11.633 1.979a7.345 7.345 0 0 0 .622 2.414 6.379 6.379 0 0 0 1.353 1.957 6.367 6.367 0 0 0 1.939 1.3 5.915 5.915 0 0 0 2.378.476 6.1 6.1 0 0 0 3.347-.9 6.7 6.7 0 0 0 2.14-2.067l1.866 1.536a9.28 9.28 0 0 1-3.384 2.78 9.462 9.462 0 0 1-3.969.841 9.1 9.1 0 0 1-3.53-.677 8.269 8.269 0 0 1-2.8-1.884 8.925 8.925 0 0 1-1.847-2.853 9.337 9.337 0 0 1-.677-3.585 9.565 9.565 0 0 1 .658-3.585 8.679 8.679 0 0 1 1.829-2.853 8.41 8.41 0 0 1 2.744-1.884 8.516 8.516 0 0 1 3.4-.677 8.342 8.342 0 0 1 3.475.7 7.711 7.711 0 0 1 2.579 1.847 7.907 7.907 0 0 1 1.591 2.707 9.874 9.874 0 0 1 .549 3.311v1.1zm21.619 7.9h-2.414V-41.8h2.414zm7.28-8.56a7.679 7.679 0 0 0 .457 2.67 6.42 6.42 0 0 0 1.3 2.158 6.1 6.1 0 0 0 2.03 1.445 6.532 6.532 0 0 0 2.689.53 6.962 6.962 0 0 0 2.725-.53 6.725 6.725 0 0 0 2.177-1.445 6.535 6.535 0 0 0 1.427-2.158 6.944 6.944 0 0 0 .512-2.67 6.944 6.944 0 0 0-.512-2.67 6.535 6.535 0 0 0-1.427-2.158 6.725 6.725 0 0 0-2.177-1.445 6.962 6.962 0 0 0-2.725-.53 6.532 6.532 0 0 0-2.689.53 6.1 6.1 0 0 0-2.03 1.445 6.42 6.42 0 0 0-1.3 2.158 7.679 7.679 0 0 0-.457 2.672zm15.62 8.56h-2.414V-17h-.073a6.281 6.281 0 0 1-1.39 1.5 8.63 8.63 0 0 1-1.683 1.024 8.05 8.05 0 0 1-1.811.585 9.23 9.23 0 0 1-1.774.183 9.674 9.674 0 0 1-3.676-.677 8.579 8.579 0 0 1-2.872-1.884 8.624 8.624 0 0 1-1.884-2.853 9.338 9.338 0 0 1-.677-3.585 9.338 9.338 0 0 1 .677-3.585 8.624 8.624 0 0 1 1.884-2.853 8.579 8.579 0 0 1 2.872-1.884 9.674 9.674 0 0 1 3.676-.677 9.23 9.23 0 0 1 1.774.183 8.049 8.049 0 0 1 1.811.585 8.63 8.63 0 0 1 1.683 1.024 6.281 6.281 0 0 1 1.39 1.5h.073V-41.8h2.414z" transform="translate(82.959 71.619)" style="opacity:.559;fill:#fff"/>
        </g>
    </g>
</svg>
