<svg xmlns="http://www.w3.org/2000/svg" width="712.054" height="708.287" viewBox="0 0 712.054 708.287">
  <g id="Group_1" data-name="Group 1" transform="translate(-1177.988 -562.846)">
    <path id="Rectangle_1" data-name="Rectangle 1" d="M354.143,11.3a345.439,345.439,0,0,0-69.106,6.965A342.725,342.725,0,0,0,18.268,285.039a346.292,346.292,0,0,0,0,138.213A342.72,342.72,0,0,0,285.039,690.019a345.427,345.427,0,0,0,69.106,6.965h3.767a345.427,345.427,0,0,0,69.106-6.965A342.716,342.716,0,0,0,693.787,423.25a346.3,346.3,0,0,0,0-138.213A342.716,342.716,0,0,0,427.018,18.268,345.431,345.431,0,0,0,357.911,11.3h-3.767m0-11.3h3.767C553.5,0,712.054,158.555,712.054,354.143S553.5,708.287,357.911,708.287h-3.767C158.555,708.287,0,549.732,0,354.143S158.555,0,354.143,0Z" transform="translate(1177.988 562.846)" fill="#6da78b"/>
    <path id="Path_86" data-name="Path 86" d="M49.567,38.728c-.1,13.511-7.351,18.975-19.932,14.612C14.031,47.926,4.484,36.809.741,20.832-.816,14.2-.209,7.644,5.374,2.9c5.213-4.429,10.962-3.011,16.877-.861C38.341,7.9,49.676,22.879,49.567,38.728Z" transform="matrix(0.53, 0.848, -0.848, 0.53, 1540.244, 744.414)" fill="#9eebc6"/>
    <path id="Path_87" data-name="Path 87" d="M52.645,41.133c-.1,14.35-7.807,20.153-21.169,15.519C14.9,50.9,4.762,39.094.787,22.125-.866,15.085-.222,8.119,5.708,3.082c5.537-4.7,11.642-3.2,17.925-.914C40.722,8.388,52.76,24.3,52.645,41.133Z" transform="translate(1616.375 775.547) rotate(90)" fill="#9eebc6"/>
    <path id="Path_88" data-name="Path 88" d="M58.847,45.979c-.114,16.04-8.727,22.528-23.663,17.348C16.658,56.9,5.323,43.7.88,24.732-.969,16.862-.248,9.075,6.38,3.445,12.57-1.813,19.394-.129,26.418,2.423,45.52,9.377,58.976,27.163,58.847,45.979Z" transform="matrix(-0.966, 0.259, -0.259, -0.966, 1631.846, 900.485)" fill="#9eebc6"/>
    <path id="Path_92" data-name="Path 92" d="M35.272,37.358c-9.318-.155-15.961-1.944-21.811-5.677C5.953,26.889-2.447,21.31.666,10.987,3.721.863,13.973.4,22.723.028a32.9,32.9,0,0,1,18.3,4.747c8.064,4.886,17.121,10.608,13.952,21.5C52.087,36.2,42.041,36.968,35.272,37.358Z" transform="matrix(0.719, 0.695, -0.695, 0.719, 1523.106, 869.822)" fill="#9eebc6"/>
    <path id="Path_94" data-name="Path 94" d="M15.843,16.31c-5.664.1-10.511-1.791-14.063-6.27C-1.151,6.34-.479,3.255,3.915,1.187c6.315-2.971,16.547-.1,20.443,5.678,1.239,1.839,1.958,3.84.755,5.748C22.99,15.98,19.415,16.266,15.843,16.31Z" transform="translate(1488.17 877.159) rotate(99)" fill="#9eebc6"/>
    <path id="Path_59" data-name="Path 59" d="M32.915,26.626c-.681,5.4-3.06,9.108-10.03,8.455C11.739,34.037-1.15,19.256.082,8.219.713,2.564,3.641-.617,9.9.1,20.95,1.364,33.047,14.884,32.915,26.626Z" transform="translate(1463.657 770.405) rotate(9)" fill="#9eebc6"/>
    <path id="Subtraction_39" data-name="Subtraction 39" d="M987.539,773.3a12.821,12.821,0,0,1-8.239-3.251c-11.959-10.029-92.743-79.306-118.027-101.021-15.628-13.33-21.362-32.107-15.334-50.228a43.578,43.578,0,0,1,41.627-31.089c50.277-1.884,86.471-24.138,107.577-66.187a115.505,115.505,0,0,0-.787-105.682,117.2,117.2,0,0,0-86.886-62.917c-8.7-1.356-17.484-2.038-230.706-2.174a13.915,13.915,0,0,1-12.312-5.855,11.46,11.46,0,0,1,.049-11.427c1.721-3.432,4.408-6.6,12.361-6.642,125.336.9,210.979.561,223.167,1.22,68.135,3.719,128.313,64,131.4,131.632,3.443,75.263-46.525,138.18-118.815,149.607-2.637.414-5.327.58-7.912.753l-.347.023a91.529,91.529,0,0,0-13.736,1.586c-4.472.957-15.379,4.167-20.115,13.205-5.436,10.349,3.01,22.567,7.983,26.858,27.54,23.965,55.536,47.941,111.016,95.425l.079.068c1.864,1.556,3.73,3.1,5.433,4.755a11.932,11.932,0,0,1,1.594,16.8c-.106.128-.215.252-.328.377a11.613,11.613,0,0,1-8.737,4.164Z" transform="translate(695.116 372.984)" fill="#fff"/>
    <path id="Subtraction_38" data-name="Subtraction 38" d="M698.325,659.1a6.883,6.883,0,0,1-5.5-2.6,17.065,17.065,0,0,1-4.287-8.5c-.659-79.241-1.107-133.775.193-187.27,1.409-57.707,48.992-109.178,106.107-114.739,14.5-1.409,30.02-2.084,61.719-1.779a8.981,8.981,0,0,1,6.721,2.7,12.488,12.488,0,0,1,3.067,9.166c-.309,8.4-6.337,10.248-11.344,10.323l-35.09.125c-65.294,0-109.174,43.7-109.189,108.726V646.3c0,7.475-3.233,9.908-6.714,11.431a14.758,14.758,0,0,1-5.683,1.369Z" transform="translate(686.884 487.185)" fill="#fff"/>
  </g>
</svg>
