<svg xmlns="http://www.w3.org/2000/svg" width="81.355" height="90.04" viewBox="0 0 81.355 90.04">
    <g data-name="Group 286">
        <g data-name="Group 3">
            <path data-name="Union 1" d="M0 27V0h27v4.4H4.4V27z" transform="translate(10.16 .001)" style="fill:#fff"/>
            <path data-name="Path 79" d="M19.268-75.524v1.976q0 3.182-2.412 4.086 2.612.871 2.612 4.22v2.11a5.046 5.046 0 0 1-1.39 3.835 5.738 5.738 0 0 1-4.1 1.323h-6.6v-22.708h6.4a5.738 5.738 0 0 1 4.1 1.323 5.046 5.046 0 0 1 1.39 3.835zm-5.861-2.445h-2.88v7.169h2.88q2.746 0 2.746-2.612v-1.978q0-2.579-2.746-2.579zm2.947 14.7v-2.144q0-2.579-2.746-2.579h-3.082v7.3h3.081q2.747.005 2.747-2.574z" transform="translate(21.134 92.584)" style="fill:#fff"/>
            <path data-name="Path 78" d="M7.378-80.682h10.048v2.78H10.56v7.636h6.5v2.813h-6.5v9.479H7.378z" transform="translate(34.08 107.219)" style="fill:#fff"/>
        </g>
        <path data-name="Path 77" d="M15.1-64.923v1.64q0 2.513-1.852 3.2 2.011.609 2.011 3.254v1.773q0 4.127-4.392 4.127H5.076V-69.05h5.635q4.389 0 4.389 4.127zm-4.868-1.429H8.251v4.895h1.984q1.746 0 1.746-1.64v-1.64q0-1.615-1.746-1.615zm1.9 11.112v-1.773q0-1.64-1.746-1.64H8.251v5.027h2.143q1.746 0 1.746-1.614zm5.715-15.186h3.2v19.5h-3.2zM30-62.3a1.4 1.4 0 0 0-1.6-1.561 1.4 1.4 0 0 0-1.6 1.561v7.355a1.4 1.4 0 0 0 1.6 1.561 1.4 1.4 0 0 0 1.6-1.565zm-6.35-.079a4.06 4.06 0 0 1 1.177-3.082A5 5 0 0 1 28.4-66.59a5 5 0 0 1 3.572 1.124 4.06 4.06 0 0 1 1.177 3.082v7.514a4.06 4.06 0 0 1-1.177 3.082 5 5 0 0 1-3.572 1.125 5 5 0 0 1-3.572-1.124 4.06 4.06 0 0 1-1.177-3.082zm12.091-8.043h3.1v19.5h-3.1zm5.953 4.1h3.2L42.221-59l3.016 8.069h-3.386l-2.778-8.2zm15.133 0v15.4h-3.2v-12.864h-3.019v12.858h-3.2v-12.858H45.9v-2.54h1.508v-.4q0-4.154 5.265-4.154a15 15 0 0 1 3.413.37v2.513a11.328 11.328 0 0 0-2.857-.344 4.011 4.011 0 0 0-2.077.37 1.367 1.367 0 0 0-.542 1.217v.423zm2.593 11.191v-7.249a4.06 4.06 0 0 1 1.18-3.086 4.979 4.979 0 0 1 3.558-1.124 4.783 4.783 0 0 1 3.506 1.124 4.165 4.165 0 0 1 1.124 3.082v5.08h-6.27v1.931A1.62 1.62 0 0 0 63.069-54a3.722 3.722 0 0 0 2.117.423 10.9 10.9 0 0 0 3.2-.5v2.831a13.075 13.075 0 0 1-3.651.476q-5.317.001-5.317-4.364zm3.1-4.656h3.307v-2.566q0-1.561-1.654-1.561t-1.654 1.561zm8.651-10.636h3.2v19.5h-3.2zm12.091 6.958H81.88a1.5 1.5 0 0 0-1.72 1.665v6.8a1.122 1.122 0 0 0 1.27 1.27 2.916 2.916 0 0 0 1.826-.529zm-.026-6.958h3.2v19.5h-3.1v-1.032a3.875 3.875 0 0 1-2.857 1.138 3.405 3.405 0 0 1-2.619-.966 3.828 3.828 0 0 1-.9-2.712v-7.381a4.416 4.416 0 0 1 1.177-3.267 4.641 4.641 0 0 1 3.426-1.177h1.667z" transform="translate(-5.076 140.703)" style="fill:#fff"/>
        <path data-name="Union 3" d="M0 0v27h27v-4.4H4.4V0z" transform="rotate(180 35.08 13.5)" style="fill:#fff"/>
        <path data-name="Union 4" d="M0 0v27h27v-4.4H4.4V0z" transform="translate(10.16 34)" style="fill:#fff"/>
        <path data-name="Union 5" d="M0 27V0h27v4.4H4.4V27z" transform="rotate(180 35.08 30.5)" style="fill:#fff"/>
    </g>
</svg>
