<svg xmlns="http://www.w3.org/2000/svg" xmlns:xlink="http://www.w3.org/1999/xlink" width="65.486" height="65.486" viewBox="0 0 65.486 65.486">
  <defs>
    <linearGradient id="linear-gradient" x1="0.5" x2="0.5" y2="1" gradientUnits="objectBoundingBox">
      <stop offset="0" stop-color="#0d3c42"/>
      <stop offset="0.69" stop-color="#ffb195"/>
      <stop offset="1" stop-color="#beffbe"/>
    </linearGradient>
  </defs>
  <g id="Group_288" data-name="Group 288" transform="translate(-928 -7537.758)">
    <g id="Group_61" data-name="Group 61" transform="translate(928 7537.758)">
      <path id="Rectangle_52" data-name="Rectangle 52" d="M9-1.5H53.486A10.512,10.512,0,0,1,63.986,9V53.486a10.512,10.512,0,0,1-10.5,10.5H9a10.512,10.512,0,0,1-10.5-10.5V9A10.512,10.512,0,0,1,9-1.5ZM53.486,60.986a7.508,7.508,0,0,0,7.5-7.5V9a7.508,7.508,0,0,0-7.5-7.5H9A7.509,7.509,0,0,0,1.5,9V53.486a7.508,7.508,0,0,0,7.5,7.5Z" transform="translate(1.5 1.5)" fill="url(#linear-gradient)"/>
      <path id="Path_57678" data-name="Path 57678" d="M1555.1,307.739a2.625,2.625,0,0,0-.947.015,22.628,22.628,0,0,1-8.432,1.857,22.133,22.133,0,0,1-9.266-1.853c-.405-.174-.736-.262-1.072.279.816.387,1.609.8,2.431,1.139.481.2.61.42.319.875-.5.781-.977,1.575-1.46,2.366a.681.681,0,0,1-.93.312,30,30,0,0,1-8.453-4.306,1.49,1.49,0,0,1-.544-.949,30.922,30.922,0,0,1,5.16-20.074,2.406,2.406,0,0,1,1.121-.947c2.125-.713,4.281-1.333,6.421-2a.68.68,0,0,1,.98.472c.342,1.137,1,1.37,2.2,1.277a57.1,57.1,0,0,1,6.235.081.783.783,0,0,0,.851-.515c.837-1.678.449-1.586,2.306-1.1,1.9.493,3.753,1.173,5.607,1.825a2.044,2.044,0,0,1,.929.77,31.048,31.048,0,0,1,5.382,18.655,11.175,11.175,0,0,1-.13,1.661,1.357,1.357,0,0,1-.454.79,29.049,29.049,0,0,1-8.648,4.369.842.842,0,0,1-.746-.234c-.579-.838-1.087-1.723-1.623-2.59-.26-.422.017-.562.345-.71.82-.369,1.633-.756,2.448-1.136Zm-6.839-7.73c0,.139-.008.279,0,.417a3.192,3.192,0,1,0,6.384-.016,3.654,3.654,0,0,0-1.918-3.711,2.965,2.965,0,0,0-3.3.509A3.669,3.669,0,0,0,1548.256,300.009Zm-5.933-.071a4.168,4.168,0,0,0-.026-.491,3.314,3.314,0,0,0-2.211-2.867,2.836,2.836,0,0,0-3.214.868,3.985,3.985,0,0,0,.017,5.165,2.967,2.967,0,0,0,4.435.051A3.7,3.7,0,0,0,1542.323,299.938Z" transform="translate(-1512.541 -265.833)" fill="url(#linear-gradient)"/>
    </g>
  </g>
</svg>
