<svg xmlns="http://www.w3.org/2000/svg" xmlns:xlink="http://www.w3.org/1999/xlink" width="65.486" height="65.486" viewBox="0 0 65.486 65.486">
  <defs>
    <linearGradient id="linear-gradient" x1="0.5" x2="0.5" y2="1" gradientUnits="objectBoundingBox">
      <stop offset="0" stop-color="#0d3c42"/>
      <stop offset="0.69" stop-color="#ffb195"/>
      <stop offset="1" stop-color="#beffbe"/>
    </linearGradient>
  </defs>
  <g id="Group_289" data-name="Group 289" transform="translate(-928 -7537.758)">
    <g id="Group_61" data-name="Group 61" transform="translate(928 7537.758)">
      <path id="Rectangle_52" data-name="Rectangle 52" d="M9-1.5H53.486A10.512,10.512,0,0,1,63.986,9V53.486a10.512,10.512,0,0,1-10.5,10.5H9a10.512,10.512,0,0,1-10.5-10.5V9A10.512,10.512,0,0,1,9-1.5ZM53.486,60.986a7.508,7.508,0,0,0,7.5-7.5V9a7.508,7.508,0,0,0-7.5-7.5H9A7.509,7.509,0,0,0,1.5,9V53.486a7.508,7.508,0,0,0,7.5,7.5Z" transform="translate(1.5 1.5)" fill="url(#linear-gradient)"/>
      <path id="Union_17" data-name="Union 17" d="M-7708.348,7738.687c0-.082,0-.163.009-.244-3.365-1.838-14.5-7.928-14.757-8.08l-.209-.128-.107-.222a4.558,4.558,0,0,1-.24-3.968,7.126,7.126,0,0,1,3.977-3.3L-7697.2,7710l13.672,9.1-2.849,1.7-18.034,11.284-.408-.229-13.858-7.687c-.979.322-2.889,1.2-3.5,2.58a2.768,2.768,0,0,0,.1,2.281c1.4.775,9.189,5.035,14.18,7.763a3.871,3.871,0,0,1,3.426-2.121,3.833,3.833,0,0,1,3.041,1.516l12.774-7.129a4.161,4.161,0,0,1-.131-1.036,3.955,3.955,0,0,1,3.886-4.021,3.955,3.955,0,0,1,3.888,4.021,3.954,3.954,0,0,1-3.888,4.016,3.836,3.836,0,0,1-3.015-1.48l-12.789,7.133a4.22,4.22,0,0,1,.12,1,3.955,3.955,0,0,1-3.887,4.017A3.956,3.956,0,0,1-7708.348,7738.687Zm1.626,0a2.3,2.3,0,0,0,2.261,2.332,2.3,2.3,0,0,0,2.261-2.332,2.3,2.3,0,0,0-2.261-2.337A2.3,2.3,0,0,0-7706.722,7738.687Zm19.574-10.67a2.3,2.3,0,0,0,2.257,2.332,2.3,2.3,0,0,0,2.262-2.332,2.3,2.3,0,0,0-2.262-2.336A2.3,2.3,0,0,0-7687.147,7728.017Z" transform="translate(7735.245 -7693.609)" fill="url(#linear-gradient)"/>
    </g>
  </g>
</svg>
